<svg xmlns="http://www.w3.org/2000/svg" width="27.424" height="21.659" viewBox="0 0 27.424 21.659">
  <g id="グループ化_115" data-name="グループ化 115" transform="translate(0 0)">
    <path id="パス_296" data-name="パス 296" d="M423.367,394.161a4.229,4.229,0,0,0-1.153.823l-3.486,3.486h0l-.03.028a1.258,1.258,0,0,0-.055,1.722c.017.02.036.039.055.058a1.258,1.258,0,0,0,1.78,0l1.917-1.918a4.171,4.171,0,0,0,.968.227,4.722,4.722,0,0,0,1.179-.021,4.876,4.876,0,0,0,1.277-.252,6.342,6.342,0,0,0,1.064-.5l.341.34,1.349,1.349c.078.079.145.144.19.19a1.4,1.4,0,0,1,.144.144l2.211,2.211a4.246,4.246,0,0,0,1.275-3l-5.524-5.524A7.835,7.835,0,0,0,423.367,394.161Z" transform="translate(-409.689 -389.49)" fill="#ffb500"/>
    <path id="パス_297" data-name="パス 297" d="M410.573,440.358a1.253,1.253,0,0,0-1.773,0l-.364.364a2.8,2.8,0,0,1-1.773-3.543,1.253,1.253,0,0,1-1.772-1.773,1.253,1.253,0,0,0-1.772,0l-1.1,1.1a2.8,2.8,0,0,1,1.772,3.545,1.253,1.253,0,0,1,1.773,1.772,1.253,1.253,0,0,0,1.772,0l.364-.365a1.254,1.254,0,0,0,1.773,1.772l1.1-1.1A1.254,1.254,0,0,0,410.573,440.358Z" transform="translate(-396.587 -422.117)" fill="#ffb500"/>
    <path id="パス_298" data-name="パス 298" d="M469.163,381.394l-6.451-6.452a.733.733,0,0,0-1.036,0l-2.069,2.069a.732.732,0,0,0,0,1.035l6.452,6.452a.731.731,0,0,0,1.035,0l2.069-2.07A.73.73,0,0,0,469.163,381.394Zm-1.839,1.431a.787.787,0,1,1,0-1.113A.787.787,0,0,1,467.324,382.825Z" transform="translate(-441.954 -374.727)" fill="#ffb500"/>
    <path id="パス_299" data-name="パス 299" d="M387.771,377.864l-2.069-2.069a.732.732,0,0,0-1.035,0l-6.452,6.452a.731.731,0,0,0,0,1.035l2.069,2.07a.733.733,0,0,0,1.035,0l6.452-6.452A.732.732,0,0,0,387.771,377.864Zm-6.6,5.814a.787.787,0,1,1,0-1.113A.788.788,0,0,1,381.167,383.678Z" transform="translate(-378 -375.398)" fill="#ffb500"/>
    <path id="パス_300" data-name="パス 300" d="M416.577,404.031l-.4-.4-3.884-3.884-.262.116-.285.1-.021.006a9.714,9.714,0,0,1-1.443.29,5.739,5.739,0,0,1-1.441.023,5.317,5.317,0,0,1-.552-.091L406.8,401.68a2.3,2.3,0,0,1-3.241,0c-.031-.032-.062-.064-.09-.1l-.01-.011a2.3,2.3,0,0,1-.442-2.274l.572-.89h0l3.486-3.485a5.512,5.512,0,0,1,.445-.4,8.5,8.5,0,0,0-2-.15L400,399.9a4.62,4.62,0,0,0,1.121,2.783,621.809,621.809,0,0,1,6.739,3.579A2.277,2.277,0,0,0,410,407.669a2.289,2.289,0,0,1,0,3.233l-.365.366.183.183a1.253,1.253,0,0,0,1.773-1.772l.365.366a2.8,2.8,0,0,1,3.544-1.773,1.253,1.253,0,0,1,1.772-1.772,1.252,1.252,0,0,0,0-1.772Z" transform="translate(-395.284 -390.159)" fill="#ffb500"/>
  </g>
</svg>
